<svg width="128" height="50" viewBox="0 0 128 50" fill="none" xmlns="http://www.w3.org/2000/svg">
<g clip-path="url(#clip0_49_269)">
<path d="M51.71 32.7204C50.9489 32.0022 50.0798 31.4087 49.1346 30.9617C51.6987 20.513 47.2849 9.19006 37.5591 3.45514C25.6965 -3.54479 10.4193 0.428513 3.43986 12.3264C-3.5396 24.2243 0.444892 39.5039 12.2875 46.542C20.4533 51.3944 30.9333 50.8816 37.4443 46.614C37.6397 46.8353 37.8458 47.0508 38.0651 47.2575C42.0701 51.0359 48.3682 50.8444 52.1364 46.83C55.9045 42.8155 55.7135 36.4988 51.71 32.7204ZM33.3123 29.9455C32.6655 31.0511 31.8076 32.0179 30.7876 32.7905C29.7677 33.5632 28.6057 34.1265 27.3684 34.4482C26.131 34.7699 24.8425 34.8438 23.5766 34.6654C22.3107 34.4871 21.0924 34.0601 19.9913 33.409C15.3587 30.6767 13.8123 24.6964 16.5372 20.0516C19.2621 15.4069 25.2261 13.8559 29.8583 16.5882C34.4904 19.3205 36.0372 25.3012 33.3123 29.9455Z" fill="#6B2AD9"/>
<path opacity="0.22" d="M44 9L42.5 7L37 20L35.5 26L32.5 31.5L49 31L50 25.5L49.5 19.5L47.5 14L46 11.5L44 9Z" fill="url(#paint0_linear_49_269)"/>
<path opacity="0.4" d="M50.7102 40.9119L38 45L37.5 46.5L39.5 48.5L43 50H46.5L50 48.5L50.7102 40.9119Z" fill="url(#paint1_linear_49_269)"/>
<path d="M64.9113 24.8874C64.9113 19.4181 69.2689 15.0765 74.7482 15.0765C80.2274 15.0765 84.5851 19.4181 84.5851 24.8874C84.5851 27.678 83.4325 30.1586 81.4094 31.8774H85.0359V34.6967H74.6668C69.241 34.6975 64.9113 30.3559 64.9113 24.8874ZM81.555 24.8874C81.5607 23.5369 81.1665 22.215 80.4223 21.0893C79.6782 19.9637 78.6176 19.0848 77.3749 18.564C76.1322 18.0432 74.7633 17.904 73.4416 18.164C72.1199 18.424 70.9049 19.0715 69.9505 20.0244C68.9961 20.9774 68.3453 22.1929 68.0804 23.5171C67.8156 24.8413 67.9486 26.2145 68.4627 27.4627C68.9768 28.711 69.8489 29.7782 70.9684 30.5291C72.0878 31.2801 73.4044 31.6809 74.7513 31.6809C75.6437 31.6857 76.5282 31.5135 77.354 31.1742C78.1798 30.8348 78.9304 30.3351 79.5628 29.7036C80.1952 29.0722 80.6967 28.3216 81.0386 27.495C81.3806 26.6685 81.556 25.7822 81.555 24.8874Z" fill="#414141"/>
<path d="M96.7651 34.6975V33.2879C96.0618 34.2463 94.7125 34.9235 93.4476 34.9235C89.9327 34.9235 87.571 32.4421 87.571 28.749V21.9267H90.4671V28.6364C90.4671 30.6946 91.6762 31.9916 93.5878 31.9916C95.4468 31.9916 96.7635 30.6666 96.7635 28.749V21.9267H99.6588V34.6975H96.7651Z" fill="#414141"/>
<path d="M102.612 18.403C102.612 18.0683 102.711 17.7411 102.897 17.4628C103.082 17.1846 103.346 16.9678 103.654 16.8398C103.963 16.7119 104.302 16.6786 104.629 16.7441C104.957 16.8096 105.257 16.9711 105.493 17.2079C105.729 17.4448 105.889 17.7465 105.954 18.0749C106.019 18.4032 105.985 18.7434 105.857 19.0525C105.729 19.3615 105.512 19.6255 105.234 19.811C104.956 19.9965 104.63 20.0952 104.296 20.0946C103.85 20.0925 103.422 19.9135 103.107 19.5966C102.791 19.2798 102.613 18.8507 102.612 18.403ZM102.865 21.9267H105.761V34.6975H102.865V21.9267Z" fill="#414141"/>
<path d="M111.809 33.2032V34.6975H108.914V17.078H111.809V23.4467C112.794 22.4883 114.312 21.8397 115.549 21.8397C119.485 21.8397 122.099 24.4338 122.099 28.3801C122.099 32.3263 119.485 34.9212 115.549 34.9212C114.336 34.9235 112.761 34.1903 111.809 33.2032ZM111.781 28.2985C111.781 30.3847 113.468 32.1042 115.492 32.1042C117.516 32.1042 119.175 30.3847 119.175 28.2985C119.175 26.2124 117.517 24.4928 115.465 24.4928C113.436 24.4921 111.778 26.186 111.778 28.2985H111.781Z" fill="#414141"/>
<path d="M124.626 18.403C124.626 18.0684 124.725 17.7414 124.91 17.4632C125.096 17.185 125.359 16.9682 125.667 16.8401C125.976 16.7121 126.315 16.6786 126.642 16.7439C126.969 16.8092 127.27 16.9703 127.506 17.2068C127.742 17.4434 127.902 17.7448 127.968 18.073C128.033 18.4011 127.999 18.7412 127.872 19.0503C127.744 19.3594 127.528 19.6236 127.25 19.8095C126.973 19.9953 126.647 20.0946 126.313 20.0946C125.866 20.0933 125.438 19.9147 125.121 19.5977C124.805 19.2808 124.627 18.8512 124.626 18.403ZM124.878 21.9267H127.775V34.6975H124.878V21.9267Z" fill="#414141"/>
</g>
<defs>
<linearGradient id="paint0_linear_49_269" x1="52.9164" y1="33.6999" x2="27.7859" y2="4.88286" gradientUnits="userSpaceOnUse">
<stop offset="0.12" stop-color="#1F1F1F" stop-opacity="0.9"/>
<stop offset="0.38143" stop-color="#333333" stop-opacity="0.78"/>
<stop offset="0.540443" stop-color="#616161" stop-opacity="0.5"/>
<stop offset="0.663532" stop-color="#A3A3A3" stop-opacity="0.29"/>
<stop offset="0.78662" stop-color="#E6E6E6" stop-opacity="0.08"/>
<stop offset="0.89331" stop-color="white" stop-opacity="0"/>
</linearGradient>
<linearGradient id="paint1_linear_49_269" x1="35.0638" y1="41.2733" x2="55.5905" y2="51.4508" gradientUnits="userSpaceOnUse">
<stop offset="0.213"/>
<stop offset="0.71" stop-color="white" stop-opacity="0"/>
</linearGradient>
<clipPath id="clip0_49_269">
<rect width="128" height="50" fill="white"/>
</clipPath>
</defs>
</svg>
